<svg width="360" height="7588" viewBox="0 0 360 7588" fill="none" xmlns="http://www.w3.org/2000/svg">
<g clip-path="url(#clip0)">
<rect width="360" height="7588" fill="white"/>
<path d="M143 1368.66L193.801 1327.48C202.783 1320.19 214.272 1316.76 225.741 1317.92C237.211 1319.08 247.72 1324.75 254.958 1333.68L350.476 1451.49C345.048 1444.79 337.166 1440.54 328.564 1439.67C319.962 1438.8 311.345 1441.37 304.608 1446.84L245.341 1494.89L143 1368.66Z" stroke="black" stroke-opacity="0.2" stroke-width="5" stroke-linecap="round" stroke-linejoin="round"/>
<path d="M311.558 1232L261.224 1272.81C252.324 1280.03 246.664 1290.49 245.489 1301.91C244.314 1313.32 247.72 1324.75 254.958 1333.68L350.476 1451.49C345.048 1444.79 342.493 1436.22 343.374 1427.66C344.256 1419.1 348.501 1411.25 355.175 1405.84L413.899 1358.22L311.558 1232Z" stroke="black" stroke-opacity="0.2" stroke-width="5" stroke-linecap="round" stroke-linejoin="round"/>
<path fill-rule="evenodd" clip-rule="evenodd" d="M94.9912 899C94.9648 902.03 94.8179 905.032 94.5552 908H-128.564C-128.827 905.032 -128.974 902.03 -129 899H94.9912ZM-126.427 922C-127.073 919.042 -127.602 916.04 -128.009 913H94C93.5933 916.04 93.0645 919.042 92.4185 922H-126.427ZM-125.214 927C-124.397 930.053 -123.456 933.055 -122.394 936H88.3848C89.4468 933.055 90.3887 930.053 91.2051 927H-125.214ZM-116.228 950C-117.764 947.074 -119.175 944.072 -120.453 941H86.4443C85.166 944.072 83.7554 947.074 82.2188 950H-116.228ZM-113.436 955C-111.6 958.099 -109.619 961.102 -107.502 964H73.4937C75.6104 961.102 77.5913 958.099 79.4272 955H-113.436ZM-95.3892 978C-98.2949 975.152 -101.046 972.148 -103.629 969H69.6206C67.0376 972.148 64.2861 975.152 61.3804 978H-95.3892ZM-89.9395 983C-86.146 986.258 -82.1318 989.267 -77.9224 992H43.9136C48.123 989.267 52.1372 986.258 55.9307 983H-89.9395ZM-46.7759 1006C-54.7134 1003.82 -62.2983 1000.78 -69.4263 997H35.4175C28.2896 1000.78 20.7046 1003.82 12.7671 1006H-46.7759ZM-128.934 894C-128.828 890.968 -128.601 887.966 -128.258 885H94.2495C94.5923 887.966 94.8188 890.968 94.9253 894H-128.934ZM-127.566 880C-127.074 876.957 -126.46 873.955 -125.729 871H91.7197C92.4512 873.955 93.0654 876.957 93.5571 880H-127.566ZM90.3574 866C89.4478 862.943 88.4111 859.941 87.2534 857H-121.262C-122.42 859.941 -123.457 862.943 -124.366 866H90.3574ZM80.5835 843C82.2334 845.921 83.7559 848.924 85.1436 852H-119.152C-117.765 848.924 -116.242 845.921 -114.592 843H80.5835ZM77.5854 838C75.6104 834.893 73.4858 831.889 71.2231 829H-105.232C-107.495 831.889 -109.619 834.893 -111.594 838H77.5854ZM58.1963 815C61.3193 817.831 64.2822 820.836 67.0688 824H-101.078C-98.291 820.836 -95.3281 817.831 -92.2051 815H58.1963ZM52.2852 810C48.6084 807.101 44.7451 804.427 40.7168 802H-74.7256C-78.7539 804.427 -82.6172 807.101 -86.2939 810H52.2852ZM-17.0044 786C0.355957 786 16.7939 789.95 31.46 797H-65.4688C-50.8027 789.95 -34.3647 786 -17.0044 786Z" fill="#C4C4C4"/>
<path fill-rule="evenodd" clip-rule="evenodd" d="M500.991 1081C500.965 1084.03 500.818 1087.03 500.555 1090H277.436C277.173 1087.03 277.027 1084.03 277 1081H500.991ZM279.573 1104C278.927 1101.04 278.398 1098.04 277.991 1095H500C499.593 1098.04 499.064 1101.04 498.418 1104H279.573ZM280.786 1109C281.603 1112.05 282.545 1115.06 283.607 1118H494.385C495.447 1115.06 496.389 1112.05 497.205 1109H280.786ZM289.773 1132C288.237 1129.07 286.826 1126.07 285.547 1123H492.444C491.166 1126.07 489.755 1129.07 488.218 1132H289.773ZM292.565 1137C294.401 1140.1 296.382 1143.1 298.498 1146H479.493C481.61 1143.1 483.591 1140.1 485.427 1137H292.565ZM310.612 1160C307.706 1157.15 304.955 1154.15 302.372 1151H475.62C473.037 1154.15 470.285 1157.15 467.379 1160H310.612ZM316.061 1165C319.855 1168.26 323.869 1171.27 328.078 1174H449.913C454.122 1171.27 458.137 1168.26 461.93 1165H316.061ZM359.224 1188C351.287 1185.82 343.702 1182.78 336.574 1179H441.417C434.289 1182.78 426.705 1185.82 418.767 1188H359.224ZM277.066 1076C277.172 1072.97 277.399 1069.97 277.742 1067H500.249C500.592 1069.97 500.819 1072.97 500.926 1076H277.066ZM280.272 1053C279.54 1055.96 278.926 1058.96 278.434 1062H499.557C499.065 1058.96 498.451 1055.96 497.72 1053H280.272ZM281.634 1048C282.543 1044.94 283.58 1041.94 284.738 1039H493.254C494.411 1041.94 495.448 1044.94 496.358 1048H281.634ZM291.408 1025C289.758 1027.92 288.235 1030.92 286.848 1034H491.144C489.756 1030.92 488.233 1027.92 486.584 1025H291.408ZM294.406 1020C296.381 1016.89 298.505 1013.89 300.768 1011H477.223C479.486 1013.89 481.61 1016.89 483.585 1020H294.406ZM313.795 997C310.672 999.831 307.709 1002.84 304.922 1006H473.069C470.282 1002.84 467.32 999.831 464.197 997H313.795ZM458.285 992C454.608 989.101 450.745 986.427 446.717 984H331.274C327.246 986.427 323.383 989.101 319.706 992H458.285ZM388.996 968C406.356 968 422.794 971.95 437.46 979H340.531C355.197 971.95 371.635 968 388.996 968Z" fill="#C4C4C4"/>
<line opacity="0.2" x1="549.906" y1="364.84" x2="244.84" y2="832.094" stroke="black" stroke-width="20" stroke-linecap="round"/>
<line opacity="0.2" x1="635.906" y1="341.84" x2="330.84" y2="809.094" stroke="black" stroke-width="20" stroke-linecap="round"/>
<line opacity="0.2" x1="520.906" y1="294.84" x2="215.84" y2="762.094" stroke="black" stroke-width="20" stroke-linecap="round"/>
</g>
<defs>
<clipPath id="clip0">
<rect width="360" height="7588" fill="white"/>
</clipPath>
</defs>
</svg>
