<svg width="1349" height="5000" viewBox="0 0 1349 5000" fill="none" xmlns="http://www.w3.org/2000/svg">
<g clip-path="url(#clip0)">
<rect width="1349" height="5000" fill="white"/>
<path fill-rule="evenodd" clip-rule="evenodd" d="M175.555 1215C184.89 1210.15 193.924 1204.81 202.621 1199H-114.676C-105.978 1204.81 -96.9445 1210.15 -87.6097 1215H175.555ZM107.144 1240H-19.1985C1.1239 1244.58 22.2658 1247 43.9726 1247C65.6793 1247 86.8212 1244.58 107.144 1240ZM-146.89 1174H234.835C242.564 1167.07 249.914 1159.72 256.849 1152H-168.904C-161.969 1159.72 -154.619 1167.07 -146.89 1174ZM-188.95 1127H276.895C282.186 1119.59 287.133 1111.91 291.711 1104H-203.766C-199.188 1111.91 -194.241 1119.59 -188.95 1127ZM-216.627 1079H304.572C307.392 1072.78 309.996 1066.45 312.374 1060H-224.429C-222.051 1066.45 -219.447 1072.78 -216.627 1079ZM-232.362 1035H320.307C322.237 1027.78 323.891 1020.44 325.257 1013H-237.312C-235.945 1020.44 -234.291 1027.78 -232.362 1035ZM-240.77 988H328.715C329.425 980.416 329.839 972.745 329.945 965H-242C-241.894 972.745 -241.48 980.416 -240.77 988ZM-241.116 938C-240.526 930.583 -239.653 923.246 -238.507 916H326.453C327.598 923.246 328.471 930.583 329.061 938H-241.116ZM-233.399 891C-231.437 883.201 -229.155 875.53 -226.567 868H314.512C317.1 875.53 319.382 883.201 321.344 891H-233.399ZM-151.26 752C-142.447 743.764 -133.112 736.079 -123.312 729H211.257C221.058 736.079 230.392 743.764 239.205 752H-151.26ZM-174.988 777H262.933C268.864 784.051 274.461 791.392 279.7 799H-191.754C-186.516 791.392 -180.919 784.051 -174.988 777ZM-207.141 824H295.086C298.474 830.198 301.64 836.535 304.572 843H-216.627C-213.695 836.535 -210.529 830.198 -207.141 824ZM169.607 704C131.684 685.427 89.0461 675 43.9726 675C-1.10086 675 -43.739 685.427 -81.6614 704H169.607Z" fill="black" fill-opacity="0.2"/>
<line opacity="0.2" x1="1420.91" y1="372.84" x2="1115.84" y2="840.094" stroke="black" stroke-width="20" stroke-linecap="round"/>
<line opacity="0.2" x1="1509.91" y1="372.84" x2="1204.84" y2="840.094" stroke="black" stroke-width="20" stroke-linecap="round"/>
<line opacity="0.2" x1="1432.91" y1="228.84" x2="1127.84" y2="696.094" stroke="black" stroke-width="20" stroke-linecap="round"/>
<path d="M1114 1076.66L1164.8 1035.48C1173.78 1028.19 1185.27 1024.76 1196.74 1025.92C1208.21 1027.08 1218.72 1032.75 1225.96 1041.68L1321.48 1159.49C1316.05 1152.79 1308.17 1148.54 1299.56 1147.67C1290.96 1146.8 1282.34 1149.37 1275.61 1154.84L1216.34 1202.89L1114 1076.66Z" stroke="black" stroke-opacity="0.2" stroke-width="5" stroke-linecap="round" stroke-linejoin="round"/>
<path d="M1282.56 940L1232.22 980.81C1223.32 988.026 1217.66 998.493 1216.49 1009.91C1215.31 1021.32 1218.72 1032.75 1225.96 1041.68L1321.48 1159.49C1316.05 1152.79 1313.49 1144.22 1314.37 1135.66C1315.26 1127.1 1319.5 1119.25 1326.18 1113.84L1384.9 1066.22L1282.56 940Z" stroke="black" stroke-opacity="0.2" stroke-width="5" stroke-linecap="round" stroke-linejoin="round"/>
<path opacity="0.2" d="M254.13 2448.06H307.02L282.51 2569.32C267.317 2581.07 249.973 2590.25 230.48 2596.84C211.273 2603.15 191.207 2606.3 170.28 2606.3C140.753 2606.3 114.953 2601 92.88 2590.39C70.8067 2579.5 53.75 2564.45 41.71 2545.24C29.9567 2525.75 24.08 2503.24 24.08 2477.73C24.08 2443.9 31.82 2413.23 47.3 2385.71C62.78 2358.19 84.71 2336.55 113.09 2320.78C141.47 2304.73 174.15 2296.7 211.13 2296.7C238.363 2296.7 262.157 2301 282.51 2309.6C302.863 2317.91 319.347 2330.1 331.96 2346.15L291.54 2379.69C281.793 2367.94 270.183 2359.34 256.71 2353.89C243.237 2348.44 227.183 2345.72 208.55 2345.72C183.037 2345.72 160.533 2351.45 141.04 2362.92C121.833 2374.1 106.927 2389.44 96.32 2408.93C85.7133 2428.42 80.41 2450.21 80.41 2474.29C80.41 2499.8 88.7233 2520.01 105.35 2534.92C121.977 2549.83 145.77 2557.28 176.73 2557.28C197.657 2557.28 217.15 2552.55 235.21 2543.09L254.13 2448.06ZM614.668 2372.38L569.088 2602H517.918L522.648 2578.35C502.582 2596.12 477.642 2605.01 447.828 2605.01C428.908 2605.01 411.708 2601 396.228 2592.97C381.035 2584.94 368.995 2573.33 360.108 2558.14C351.222 2542.66 346.778 2524.6 346.778 2503.96C346.778 2478.45 352.368 2455.51 363.548 2435.16C375.015 2414.52 390.495 2398.47 409.988 2387C429.768 2375.53 451.842 2369.8 476.208 2369.8C512.902 2369.8 538.988 2381.98 554.468 2406.35L560.918 2372.38H614.668ZM461.588 2559C476.782 2559 490.255 2555.42 502.008 2548.25C514.048 2540.8 523.508 2530.62 530.388 2517.72C537.268 2504.53 540.708 2489.63 540.708 2473C540.708 2454.94 535.405 2440.89 524.798 2430.86C514.192 2420.54 499.285 2415.38 480.078 2415.38C464.885 2415.38 451.268 2419.11 439.228 2426.56C427.475 2433.73 418.158 2443.9 411.278 2457.09C404.398 2469.99 400.958 2484.75 400.958 2501.38C400.958 2519.44 406.262 2533.63 416.868 2543.95C427.475 2553.98 442.382 2559 461.588 2559ZM703.053 2282.94H756.803L693.163 2602H639.413L703.053 2282.94ZM1004.08 2470.42C1004.08 2481.6 1002.93 2492.49 1000.64 2503.1H818.32C819.18 2540.65 841.254 2559.43 884.54 2559.43C897.727 2559.43 910.054 2557.42 921.52 2553.41C932.987 2549.11 942.734 2543.23 950.76 2535.78L973.12 2573.19C961.367 2583.8 947.177 2591.82 930.55 2597.27C914.21 2602.43 897.01 2605.01 878.95 2605.01C856.017 2605.01 835.95 2600.85 818.75 2592.54C801.837 2584.23 788.794 2572.47 779.62 2557.28C770.447 2541.8 765.86 2524.03 765.86 2503.96C765.86 2478.45 771.45 2455.51 782.63 2435.16C794.097 2414.52 809.864 2398.47 829.93 2387C850.284 2375.53 873.074 2369.8 898.3 2369.8C930.407 2369.8 956.064 2378.83 975.27 2396.89C994.477 2414.66 1004.08 2439.17 1004.08 2470.42ZM895.72 2412.8C877.66 2412.8 862.18 2417.67 849.28 2427.42C836.667 2437.17 827.924 2450.5 823.05 2467.41H954.63C954.917 2450.21 949.614 2436.88 938.72 2427.42C928.114 2417.67 913.78 2412.8 895.72 2412.8ZM1120.67 2402.05C1130.7 2390.3 1142.89 2381.98 1157.22 2377.11C1171.84 2372.24 1189.18 2369.8 1209.25 2369.8L1199.36 2420.97C1194.49 2420.11 1190.04 2419.68 1186.03 2419.68C1142.17 2419.68 1115.65 2442.76 1106.48 2488.91L1083.69 2602H1029.94L1075.52 2372.38H1126.69L1120.67 2402.05ZM1253.99 2372.38H1307.74L1262.16 2602H1208.41L1253.99 2372.38ZM1293.12 2334.54C1283.66 2334.54 1275.92 2331.67 1269.9 2325.94C1263.88 2319.92 1260.87 2312.75 1260.87 2304.44C1260.87 2294.69 1264.16 2286.52 1270.76 2279.93C1277.64 2273.34 1286.52 2270.04 1297.42 2270.04C1306.88 2270.04 1314.62 2272.91 1320.64 2278.64C1326.66 2284.09 1329.67 2290.82 1329.67 2298.85C1329.67 2309.46 1326.23 2318.06 1319.35 2324.65C1312.75 2331.24 1304.01 2334.54 1293.12 2334.54Z" fill="black"/>
</g>
<defs>
<clipPath id="clip0">
<rect width="1349" height="5000" fill="white"/>
</clipPath>
</defs>
</svg>
